<mxfile host="app.diagrams.net" modified="2023-04-23T03:37:29.100Z" agent="Mozilla/5.0 (Windows NT 10.0; Win64; x64) AppleWebKit/537.36 (KHTML, like Gecko) Chrome/111.0.0.0 Safari/537.36" etag="Koi8fg8IpLXUYdc62YL7" version="21.2.1" type="device">
  <diagram name="Page-1" id="WHXJkQMU5elfOoV5BE3L">
    <mxGraphModel dx="1452" dy="1026" grid="1" gridSize="10" guides="1" tooltips="1" connect="1" arrows="1" fold="1" page="1" pageScale="1" pageWidth="850" pageHeight="1100" math="0" shadow="0">
      <root>
        <mxCell id="0" />
        <mxCell id="1" parent="0" />
        <mxCell id="aQMe9gUHEFxuouvoBKi8-70" value="Event Handler Loop" style="rounded=0;whiteSpace=wrap;html=1;" vertex="1" parent="1">
          <mxGeometry x="10" y="480" width="650" height="400" as="geometry" />
        </mxCell>
        <mxCell id="aQMe9gUHEFxuouvoBKi8-4" style="edgeStyle=orthogonalEdgeStyle;rounded=0;orthogonalLoop=1;jettySize=auto;html=1;exitX=0.5;exitY=1;exitDx=0;exitDy=0;entryX=0.5;entryY=0;entryDx=0;entryDy=0;" edge="1" parent="1" source="aQMe9gUHEFxuouvoBKi8-1" target="aQMe9gUHEFxuouvoBKi8-26">
          <mxGeometry relative="1" as="geometry">
            <mxPoint x="160" y="120" as="targetPoint" />
          </mxGeometry>
        </mxCell>
        <mxCell id="aQMe9gUHEFxuouvoBKi8-1" value="Start" style="rounded=1;whiteSpace=wrap;html=1;" vertex="1" parent="1">
          <mxGeometry x="120" y="70" width="80" height="20" as="geometry" />
        </mxCell>
        <mxCell id="aQMe9gUHEFxuouvoBKi8-2" value="End" style="rounded=1;whiteSpace=wrap;html=1;" vertex="1" parent="1">
          <mxGeometry x="700" y="65" width="80" height="20" as="geometry" />
        </mxCell>
        <mxCell id="aQMe9gUHEFxuouvoBKi8-21" style="edgeStyle=orthogonalEdgeStyle;rounded=0;orthogonalLoop=1;jettySize=auto;html=1;exitX=1;exitY=0.5;exitDx=0;exitDy=0;entryX=0;entryY=0.5;entryDx=0;entryDy=0;" edge="1" parent="1" source="aQMe9gUHEFxuouvoBKi8-8" target="aQMe9gUHEFxuouvoBKi8-19">
          <mxGeometry relative="1" as="geometry">
            <mxPoint x="480" y="270" as="targetPoint" />
          </mxGeometry>
        </mxCell>
        <mxCell id="aQMe9gUHEFxuouvoBKi8-8" value="JSON&lt;br&gt;Parser Class" style="rounded=0;whiteSpace=wrap;html=1;" vertex="1" parent="1">
          <mxGeometry x="330" y="295" width="100" height="40" as="geometry" />
        </mxCell>
        <mxCell id="aQMe9gUHEFxuouvoBKi8-14" style="edgeStyle=orthogonalEdgeStyle;rounded=0;orthogonalLoop=1;jettySize=auto;html=1;exitX=1;exitY=0.5;exitDx=0;exitDy=0;entryX=0;entryY=0.5;entryDx=0;entryDy=0;" edge="1" parent="1" source="aQMe9gUHEFxuouvoBKi8-13" target="aQMe9gUHEFxuouvoBKi8-8">
          <mxGeometry relative="1" as="geometry" />
        </mxCell>
        <mxCell id="aQMe9gUHEFxuouvoBKi8-22" style="edgeStyle=orthogonalEdgeStyle;rounded=0;orthogonalLoop=1;jettySize=auto;html=1;exitX=0.5;exitY=1;exitDx=0;exitDy=0;entryX=0.5;entryY=0;entryDx=0;entryDy=0;" edge="1" parent="1" source="aQMe9gUHEFxuouvoBKi8-13" target="aQMe9gUHEFxuouvoBKi8-23">
          <mxGeometry relative="1" as="geometry">
            <mxPoint x="169.83333333333348" y="325" as="targetPoint" />
          </mxGeometry>
        </mxCell>
        <mxCell id="aQMe9gUHEFxuouvoBKi8-13" value="Loader: check for a default image and waypoint json file, that contains demonstration data&amp;nbsp;" style="rounded=0;whiteSpace=wrap;html=1;" vertex="1" parent="1">
          <mxGeometry x="50" y="290" width="220" height="50" as="geometry" />
        </mxCell>
        <mxCell id="aQMe9gUHEFxuouvoBKi8-32" style="edgeStyle=orthogonalEdgeStyle;rounded=0;orthogonalLoop=1;jettySize=auto;html=1;exitX=0.5;exitY=1;exitDx=0;exitDy=0;entryX=1;entryY=0.5;entryDx=0;entryDy=0;" edge="1" parent="1" source="aQMe9gUHEFxuouvoBKi8-19" target="aQMe9gUHEFxuouvoBKi8-24">
          <mxGeometry relative="1" as="geometry" />
        </mxCell>
        <mxCell id="aQMe9gUHEFxuouvoBKi8-33" value="sprites and coords" style="edgeLabel;html=1;align=center;verticalAlign=middle;resizable=0;points=[];" vertex="1" connectable="0" parent="aQMe9gUHEFxuouvoBKi8-32">
          <mxGeometry x="-0.7618" y="1" relative="1" as="geometry">
            <mxPoint x="-51" y="44" as="offset" />
          </mxGeometry>
        </mxCell>
        <mxCell id="aQMe9gUHEFxuouvoBKi8-19" value="Data Structures:&lt;br&gt;Vector and Hashmap, vector for saving to and parsing from file and hashmap for runtime referencing of data" style="rounded=0;whiteSpace=wrap;html=1;" vertex="1" parent="1">
          <mxGeometry x="480" y="265" width="140" height="100" as="geometry" />
        </mxCell>
        <mxCell id="aQMe9gUHEFxuouvoBKi8-31" value="jpeg" style="edgeStyle=orthogonalEdgeStyle;rounded=0;orthogonalLoop=1;jettySize=auto;html=1;exitX=1;exitY=0.5;exitDx=0;exitDy=0;entryX=0;entryY=0.5;entryDx=0;entryDy=0;" edge="1" parent="1" source="aQMe9gUHEFxuouvoBKi8-23" target="aQMe9gUHEFxuouvoBKi8-24">
          <mxGeometry relative="1" as="geometry" />
        </mxCell>
        <mxCell id="aQMe9gUHEFxuouvoBKi8-44" style="edgeStyle=orthogonalEdgeStyle;rounded=0;orthogonalLoop=1;jettySize=auto;html=1;exitX=0.5;exitY=1;exitDx=0;exitDy=0;entryX=0.5;entryY=0;entryDx=0;entryDy=0;" edge="1" parent="1" source="aQMe9gUHEFxuouvoBKi8-23" target="aQMe9gUHEFxuouvoBKi8-35">
          <mxGeometry relative="1" as="geometry" />
        </mxCell>
        <mxCell id="aQMe9gUHEFxuouvoBKi8-23" value="Window: loads a jpg image to the window" style="rounded=0;whiteSpace=wrap;html=1;" vertex="1" parent="1">
          <mxGeometry x="100" y="400" width="120" height="60" as="geometry" />
        </mxCell>
        <mxCell id="aQMe9gUHEFxuouvoBKi8-24" value="wxWidgets &lt;br&gt;Window Class" style="rounded=0;whiteSpace=wrap;html=1;" vertex="1" parent="1">
          <mxGeometry x="320" y="400" width="120" height="60" as="geometry" />
        </mxCell>
        <mxCell id="aQMe9gUHEFxuouvoBKi8-27" value="Yes" style="edgeStyle=orthogonalEdgeStyle;rounded=0;orthogonalLoop=1;jettySize=auto;html=1;exitX=0.5;exitY=1;exitDx=0;exitDy=0;entryX=0.5;entryY=0;entryDx=0;entryDy=0;" edge="1" parent="1" source="aQMe9gUHEFxuouvoBKi8-26" target="aQMe9gUHEFxuouvoBKi8-13">
          <mxGeometry relative="1" as="geometry" />
        </mxCell>
        <mxCell id="aQMe9gUHEFxuouvoBKi8-28" style="edgeStyle=orthogonalEdgeStyle;rounded=0;orthogonalLoop=1;jettySize=auto;html=1;exitX=1;exitY=0.5;exitDx=0;exitDy=0;entryX=0;entryY=0.5;entryDx=0;entryDy=0;" edge="1" parent="1" source="aQMe9gUHEFxuouvoBKi8-26" target="aQMe9gUHEFxuouvoBKi8-2">
          <mxGeometry relative="1" as="geometry">
            <mxPoint x="650" y="75" as="targetPoint" />
            <Array as="points">
              <mxPoint x="268" y="75" />
              <mxPoint x="680" y="75" />
            </Array>
          </mxGeometry>
        </mxCell>
        <mxCell id="aQMe9gUHEFxuouvoBKi8-29" value="No" style="edgeLabel;html=1;align=center;verticalAlign=middle;resizable=0;points=[];" vertex="1" connectable="0" parent="aQMe9gUHEFxuouvoBKi8-28">
          <mxGeometry x="-0.7179" relative="1" as="geometry">
            <mxPoint as="offset" />
          </mxGeometry>
        </mxCell>
        <mxCell id="aQMe9gUHEFxuouvoBKi8-26" value="&lt;br&gt;&lt;span style=&quot;color: rgb(0, 0, 0); font-family: Helvetica; font-size: 12px; font-style: normal; font-variant-ligatures: normal; font-variant-caps: normal; font-weight: 400; letter-spacing: normal; orphans: 2; text-align: center; text-indent: 0px; text-transform: none; widows: 2; word-spacing: 0px; -webkit-text-stroke-width: 0px; background-color: rgb(251, 251, 251); text-decoration-thickness: initial; text-decoration-style: initial; text-decoration-color: initial; float: none; display: inline !important;&quot;&gt;Greeting pop-up window&lt;br&gt;&amp;nbsp;that provides information and asks for running the program&lt;/span&gt;" style="rhombus;whiteSpace=wrap;html=1;" vertex="1" parent="1">
          <mxGeometry x="52.5" y="120" width="215" height="110" as="geometry" />
        </mxCell>
        <mxCell id="aQMe9gUHEFxuouvoBKi8-40" style="edgeStyle=orthogonalEdgeStyle;rounded=0;orthogonalLoop=1;jettySize=auto;html=1;exitX=0;exitY=1;exitDx=0;exitDy=0;entryX=0.438;entryY=-0.052;entryDx=0;entryDy=0;entryPerimeter=0;" edge="1" parent="1" source="aQMe9gUHEFxuouvoBKi8-35" target="aQMe9gUHEFxuouvoBKi8-36">
          <mxGeometry relative="1" as="geometry" />
        </mxCell>
        <mxCell id="aQMe9gUHEFxuouvoBKi8-41" style="edgeStyle=orthogonalEdgeStyle;rounded=0;orthogonalLoop=1;jettySize=auto;html=1;entryX=0.5;entryY=0;entryDx=0;entryDy=0;exitX=1;exitY=1;exitDx=0;exitDy=0;" edge="1" parent="1" source="aQMe9gUHEFxuouvoBKi8-35" target="aQMe9gUHEFxuouvoBKi8-37">
          <mxGeometry relative="1" as="geometry">
            <mxPoint x="160" y="580" as="sourcePoint" />
          </mxGeometry>
        </mxCell>
        <mxCell id="aQMe9gUHEFxuouvoBKi8-50" style="edgeStyle=orthogonalEdgeStyle;rounded=0;orthogonalLoop=1;jettySize=auto;html=1;exitX=1;exitY=0.5;exitDx=0;exitDy=0;entryX=0.5;entryY=0;entryDx=0;entryDy=0;" edge="1" parent="1" source="aQMe9gUHEFxuouvoBKi8-35" target="aQMe9gUHEFxuouvoBKi8-48">
          <mxGeometry relative="1" as="geometry" />
        </mxCell>
        <mxCell id="aQMe9gUHEFxuouvoBKi8-52" style="edgeStyle=orthogonalEdgeStyle;rounded=0;orthogonalLoop=1;jettySize=auto;html=1;exitX=0.5;exitY=1;exitDx=0;exitDy=0;startArrow=classic;startFill=1;" edge="1" parent="1" source="aQMe9gUHEFxuouvoBKi8-35" target="aQMe9gUHEFxuouvoBKi8-49">
          <mxGeometry relative="1" as="geometry" />
        </mxCell>
        <mxCell id="aQMe9gUHEFxuouvoBKi8-95" value="switch between both" style="edgeLabel;html=1;align=center;verticalAlign=middle;resizable=0;points=[];" vertex="1" connectable="0" parent="aQMe9gUHEFxuouvoBKi8-52">
          <mxGeometry x="-0.218" y="-1" relative="1" as="geometry">
            <mxPoint x="1" y="-3" as="offset" />
          </mxGeometry>
        </mxCell>
        <mxCell id="aQMe9gUHEFxuouvoBKi8-67" style="edgeStyle=orthogonalEdgeStyle;rounded=0;orthogonalLoop=1;jettySize=auto;html=1;exitX=1;exitY=0;exitDx=0;exitDy=0;" edge="1" parent="1" source="aQMe9gUHEFxuouvoBKi8-35" target="aQMe9gUHEFxuouvoBKi8-68">
          <mxGeometry relative="1" as="geometry">
            <mxPoint x="580" y="520" as="targetPoint" />
          </mxGeometry>
        </mxCell>
        <mxCell id="aQMe9gUHEFxuouvoBKi8-35" value="General Menu" style="rhombus;whiteSpace=wrap;html=1;" vertex="1" parent="1">
          <mxGeometry x="85" y="500" width="150" height="80" as="geometry" />
        </mxCell>
        <mxCell id="aQMe9gUHEFxuouvoBKi8-36" value="Create New Waypoint" style="rounded=0;whiteSpace=wrap;html=1;" vertex="1" parent="1">
          <mxGeometry x="20" y="630" width="120" height="30" as="geometry" />
        </mxCell>
        <mxCell id="aQMe9gUHEFxuouvoBKi8-37" value="Create New Metric" style="rounded=0;whiteSpace=wrap;html=1;" vertex="1" parent="1">
          <mxGeometry x="180" y="630" width="140" height="30" as="geometry" />
        </mxCell>
        <mxCell id="aQMe9gUHEFxuouvoBKi8-38" value="Delete Metric" style="rounded=0;whiteSpace=wrap;html=1;" vertex="1" parent="1">
          <mxGeometry x="170" y="830" width="120" height="30" as="geometry" />
        </mxCell>
        <mxCell id="aQMe9gUHEFxuouvoBKi8-39" value="Delete Waypoint" style="rounded=0;whiteSpace=wrap;html=1;" vertex="1" parent="1">
          <mxGeometry x="30" y="830" width="120" height="30" as="geometry" />
        </mxCell>
        <mxCell id="aQMe9gUHEFxuouvoBKi8-61" style="edgeStyle=orthogonalEdgeStyle;rounded=0;orthogonalLoop=1;jettySize=auto;html=1;exitX=0.5;exitY=1;exitDx=0;exitDy=0;entryX=0.5;entryY=0;entryDx=0;entryDy=0;" edge="1" parent="1" source="aQMe9gUHEFxuouvoBKi8-48" target="aQMe9gUHEFxuouvoBKi8-60">
          <mxGeometry relative="1" as="geometry" />
        </mxCell>
        <mxCell id="aQMe9gUHEFxuouvoBKi8-48" value="List Waypoints&amp;nbsp;by Metric" style="rounded=0;whiteSpace=wrap;html=1;" vertex="1" parent="1">
          <mxGeometry x="350" y="630" width="120" height="30" as="geometry" />
        </mxCell>
        <mxCell id="aQMe9gUHEFxuouvoBKi8-53" style="edgeStyle=orthogonalEdgeStyle;rounded=0;orthogonalLoop=1;jettySize=auto;html=1;exitX=0;exitY=1;exitDx=0;exitDy=0;" edge="1" parent="1" source="aQMe9gUHEFxuouvoBKi8-49" target="aQMe9gUHEFxuouvoBKi8-39">
          <mxGeometry relative="1" as="geometry" />
        </mxCell>
        <mxCell id="aQMe9gUHEFxuouvoBKi8-54" style="edgeStyle=orthogonalEdgeStyle;rounded=0;orthogonalLoop=1;jettySize=auto;html=1;exitX=1;exitY=1;exitDx=0;exitDy=0;entryX=0.5;entryY=0;entryDx=0;entryDy=0;" edge="1" parent="1" source="aQMe9gUHEFxuouvoBKi8-49" target="aQMe9gUHEFxuouvoBKi8-38">
          <mxGeometry relative="1" as="geometry" />
        </mxCell>
        <mxCell id="aQMe9gUHEFxuouvoBKi8-63" style="edgeStyle=orthogonalEdgeStyle;rounded=0;orthogonalLoop=1;jettySize=auto;html=1;exitX=0.5;exitY=1;exitDx=0;exitDy=0;entryX=0.5;entryY=0;entryDx=0;entryDy=0;" edge="1" parent="1" source="aQMe9gUHEFxuouvoBKi8-49" target="aQMe9gUHEFxuouvoBKi8-64">
          <mxGeometry relative="1" as="geometry">
            <mxPoint x="160" y="920" as="targetPoint" />
          </mxGeometry>
        </mxCell>
        <mxCell id="aQMe9gUHEFxuouvoBKi8-96" value="exit menus" style="edgeLabel;html=1;align=center;verticalAlign=middle;resizable=0;points=[];" vertex="1" connectable="0" parent="aQMe9gUHEFxuouvoBKi8-63">
          <mxGeometry x="-0.7628" y="-1" relative="1" as="geometry">
            <mxPoint as="offset" />
          </mxGeometry>
        </mxCell>
        <mxCell id="aQMe9gUHEFxuouvoBKi8-49" value="Waypoint Menu&lt;br&gt;by click or by name" style="rhombus;whiteSpace=wrap;html=1;" vertex="1" parent="1">
          <mxGeometry x="80" y="690" width="160" height="70" as="geometry" />
        </mxCell>
        <mxCell id="aQMe9gUHEFxuouvoBKi8-60" value="Specific operations such as distances, path traversal, etc." style="rounded=0;whiteSpace=wrap;html=1;" vertex="1" parent="1">
          <mxGeometry x="345" y="700" width="130" height="70" as="geometry" />
        </mxCell>
        <mxCell id="aQMe9gUHEFxuouvoBKi8-76" style="edgeStyle=orthogonalEdgeStyle;rounded=0;orthogonalLoop=1;jettySize=auto;html=1;exitX=0;exitY=1;exitDx=0;exitDy=0;entryX=0;entryY=0.5;entryDx=0;entryDy=0;" edge="1" parent="1" source="aQMe9gUHEFxuouvoBKi8-64" target="aQMe9gUHEFxuouvoBKi8-72">
          <mxGeometry relative="1" as="geometry" />
        </mxCell>
        <mxCell id="aQMe9gUHEFxuouvoBKi8-77" value="Yes" style="edgeLabel;html=1;align=center;verticalAlign=middle;resizable=0;points=[];" vertex="1" connectable="0" parent="aQMe9gUHEFxuouvoBKi8-76">
          <mxGeometry x="-0.3954" y="2" relative="1" as="geometry">
            <mxPoint x="-1" y="-4" as="offset" />
          </mxGeometry>
        </mxCell>
        <mxCell id="aQMe9gUHEFxuouvoBKi8-78" style="edgeStyle=orthogonalEdgeStyle;rounded=0;orthogonalLoop=1;jettySize=auto;html=1;entryX=0.5;entryY=1;entryDx=0;entryDy=0;exitX=1;exitY=0.5;exitDx=0;exitDy=0;" edge="1" parent="1" source="aQMe9gUHEFxuouvoBKi8-64" target="aQMe9gUHEFxuouvoBKi8-2">
          <mxGeometry relative="1" as="geometry">
            <mxPoint x="680" y="1010" as="targetPoint" />
            <mxPoint x="360" y="930" as="sourcePoint" />
            <Array as="points">
              <mxPoint x="740" y="930" />
            </Array>
          </mxGeometry>
        </mxCell>
        <mxCell id="aQMe9gUHEFxuouvoBKi8-79" value="No" style="edgeLabel;html=1;align=center;verticalAlign=middle;resizable=0;points=[];" vertex="1" connectable="0" parent="aQMe9gUHEFxuouvoBKi8-78">
          <mxGeometry x="-0.559" y="-1" relative="1" as="geometry">
            <mxPoint x="-278" y="-1" as="offset" />
          </mxGeometry>
        </mxCell>
        <mxCell id="aQMe9gUHEFxuouvoBKi8-64" value="Save updated file or &lt;br&gt;ignore updates" style="rhombus;whiteSpace=wrap;html=1;" vertex="1" parent="1">
          <mxGeometry x="77.5" y="895" width="165" height="70" as="geometry" />
        </mxCell>
        <mxCell id="aQMe9gUHEFxuouvoBKi8-68" value="Undo deletion" style="rounded=0;whiteSpace=wrap;html=1;" vertex="1" parent="1">
          <mxGeometry x="490" y="630" width="120" height="30" as="geometry" />
        </mxCell>
        <mxCell id="aQMe9gUHEFxuouvoBKi8-69" style="edgeStyle=orthogonalEdgeStyle;rounded=0;orthogonalLoop=1;jettySize=auto;html=1;exitX=0.5;exitY=1;exitDx=0;exitDy=0;" edge="1" parent="1" source="aQMe9gUHEFxuouvoBKi8-68" target="aQMe9gUHEFxuouvoBKi8-68">
          <mxGeometry relative="1" as="geometry" />
        </mxCell>
        <mxCell id="aQMe9gUHEFxuouvoBKi8-84" style="edgeStyle=orthogonalEdgeStyle;rounded=0;orthogonalLoop=1;jettySize=auto;html=1;exitX=1;exitY=0.5;exitDx=0;exitDy=0;entryX=0;entryY=0.5;entryDx=0;entryDy=0;" edge="1" parent="1" source="aQMe9gUHEFxuouvoBKi8-72" target="aQMe9gUHEFxuouvoBKi8-83">
          <mxGeometry relative="1" as="geometry" />
        </mxCell>
        <mxCell id="aQMe9gUHEFxuouvoBKi8-72" value="JSON &lt;br&gt;Printer Class" style="rounded=0;whiteSpace=wrap;html=1;" vertex="1" parent="1">
          <mxGeometry x="140" y="1000" width="120" height="40" as="geometry" />
        </mxCell>
        <mxCell id="aQMe9gUHEFxuouvoBKi8-88" style="edgeStyle=orthogonalEdgeStyle;rounded=0;orthogonalLoop=1;jettySize=auto;html=1;exitX=1;exitY=0.5;exitDx=0;exitDy=0;entryX=0.75;entryY=1;entryDx=0;entryDy=0;" edge="1" parent="1" source="aQMe9gUHEFxuouvoBKi8-83" target="aQMe9gUHEFxuouvoBKi8-2">
          <mxGeometry relative="1" as="geometry" />
        </mxCell>
        <mxCell id="aQMe9gUHEFxuouvoBKi8-83" value="Output File" style="shape=parallelogram;perimeter=parallelogramPerimeter;whiteSpace=wrap;html=1;fixedSize=1;" vertex="1" parent="1">
          <mxGeometry x="320" y="990" width="120" height="60" as="geometry" />
        </mxCell>
        <mxCell id="aQMe9gUHEFxuouvoBKi8-86" style="edgeStyle=orthogonalEdgeStyle;rounded=0;orthogonalLoop=1;jettySize=auto;html=1;exitX=0.5;exitY=1;exitDx=0;exitDy=0;entryX=0.5;entryY=0;entryDx=0;entryDy=0;" edge="1" parent="1" source="aQMe9gUHEFxuouvoBKi8-85" target="aQMe9gUHEFxuouvoBKi8-8">
          <mxGeometry relative="1" as="geometry" />
        </mxCell>
        <mxCell id="aQMe9gUHEFxuouvoBKi8-85" value="Input File" style="shape=parallelogram;perimeter=parallelogramPerimeter;whiteSpace=wrap;html=1;fixedSize=1;" vertex="1" parent="1">
          <mxGeometry x="320" y="100" width="120" height="30" as="geometry" />
        </mxCell>
        <mxCell id="aQMe9gUHEFxuouvoBKi8-89" value="Decision" style="rhombus;whiteSpace=wrap;html=1;" vertex="1" parent="1">
          <mxGeometry x="460" y="100" width="80" height="40" as="geometry" />
        </mxCell>
        <mxCell id="aQMe9gUHEFxuouvoBKi8-90" value="File IO" style="shape=parallelogram;perimeter=parallelogramPerimeter;whiteSpace=wrap;html=1;fixedSize=1;" vertex="1" parent="1">
          <mxGeometry x="540" y="110" width="80" height="20" as="geometry" />
        </mxCell>
        <mxCell id="aQMe9gUHEFxuouvoBKi8-91" value="Process" style="rounded=0;whiteSpace=wrap;html=1;" vertex="1" parent="1">
          <mxGeometry x="467.5" y="150" width="65" height="20" as="geometry" />
        </mxCell>
        <mxCell id="aQMe9gUHEFxuouvoBKi8-92" value="Terminus" style="rounded=1;whiteSpace=wrap;html=1;" vertex="1" parent="1">
          <mxGeometry x="550" y="150" width="60" height="20" as="geometry" />
        </mxCell>
      </root>
    </mxGraphModel>
  </diagram>
</mxfile>
